<svg xmlns="http://www.w3.org/2000/svg" xmlns:xlink="http://www.w3.org/1999/xlink" viewBox="0 0 102.125 123.167" fill="#fff" fill-rule="evenodd" stroke="#000" stroke-linecap="round" stroke-linejoin="round"><use xlink:href="#A" x="2.083" y="2.083"/><symbol id="A" overflow="visible"><g stroke="none"><g fill="#ea5a47" fill-rule="nonzero"><use xlink:href="#C"/><path d="M88.957 51.077c0-22.333-18.104-28.621-40.433-28.621S8.09 28.748 8.09 51.077 26.194 91.51 48.523 91.51s40.433-18.104 40.433-40.433z"/></g><path d="M49.809 118.744s10.933-7.646 10.219-25.229c4.702-4.892 6.16-11.465 1.89-19.452 7.215-10.283 6.465-21.408-2.167-29.842 3.556-5.131 1.698-9.577-2.325-12.917 0 0 11.575 5.675 20.417-2.437 0 0 18.631 13.396 10.848 25.431 0 0 20.569 13.902.729 28.438 0 0 2.896 22.154-23.25 26.771 0 0-6.883 7.792-16.375 9.242z" fill="#d22f27" fill-rule="nonzero"/><path d="M89.648 4.898C80.732 46.435 53.45 32.258 49.74 24.977s-.125-36.371 39.908-20.062zm-82.158 0c8.896 41.538 36.2 27.361 39.908 20.079S47.523-11.394 7.49 4.914z" fill="#b1cc33" fill-rule="nonzero"/></g><g fill="none" stroke-width="4.167"><path d="M89.648 4.898C80.731 46.415 53.45 32.258 49.74 24.956s-.125-36.371 39.908-20.062z"/><path d="M68.381 13.298c-6.521 2.5-14.875 6.529-18.573 11.779M7.49 4.898c8.896 41.517 36.2 27.36 39.908 20.058S47.523-11.415 7.49 4.894z"/><path d="M28.756 13.298c6.521 2.5 14.875 6.529 18.573 11.779"/><use xlink:href="#C"/><path d="M61.446 42.842s-5.45 5.765-12.175 5.765m-12.64-5.765s5.45 5.765 12.175 5.765m28.929 15.171c0 6.025-5.171 10.908-11.55 10.908M54.196 63.777c0 6.025 5.171 10.908 11.55 10.908M44.029 63.777c0 6.025-5.171 10.908-11.55 10.908M20.487 63.777c0 6.025 5.171 10.908 11.55 10.908m28.704 18.963c-2.173 2.917-6.583 4.875-11.667 4.875m-12.427-5.208c2.071 3.083 6.629 5.225 11.917 5.225m-12.021-4.479c0 2.583-1.6 4.917-4.163 6.55m28.485-6.55c0 2.819 1.902 5.333 4.879 6.975m-43.556-30.7c0 4.929-3.458 9.096-8.213 10.448m11.55-38.015c0 6.45-5.171 11.679-11.55 11.679m56.052-11.679c0 6.45 5.171 11.679 11.55 11.679m-5.556 15.888c0 4.708 3.158 8.721 7.583 10.25"/></g></symbol><defs ><path id="C" d="M15.002 34.64s-5.375 3.229-6.573 8.531.002 11.119.002 11.119S0 57.765 0 68.703 7.11 82.73 7.11 82.73s.083 12.906 8.042 19.867 16.304 6.992 16.304 6.992 4.342 9.188 17.115 9.188 17.115-9.187 17.115-9.187 8.646-1.263 16.304-6.992 7.448-19.867 7.448-19.867 7.702-3.09 7.702-14.027-8.431-14.413-8.431-14.413 1.202-5.833 0-11.119-6.573-8.531-6.573-8.531"/></defs></svg>