<svg id="visual" viewBox="0 0 1920 1080" width="1920" height="1080" xmlns="http://www.w3.org/2000/svg" xmlns:xlink="http://www.w3.org/1999/xlink" version="1.1"><g stroke-width="1" stroke-linejoin="bevel"><path d="M883.7 600.1L900.7 742.4L1048.3 581.1Z" fill="#00101c" stroke="#00101c"></path><path d="M900.7 742.4L1011.3 788.4L1048.3 581.1Z" fill="#15384f" stroke="#15384f"></path><path d="M1227.8 620.1L1079.3 497.9L1048.3 581.1Z" fill="#205a7a" stroke="#205a7a"></path><path d="M1048.3 581.1L851.7 459.9L883.7 600.1Z" fill="#19435d" stroke="#19435d"></path><path d="M1079.3 497.9L851.7 459.9L1048.3 581.1Z" fill="#1d4e6b" stroke="#1d4e6b"></path><path d="M883.7 600.1L727.2 781.4L900.7 742.4Z" fill="#15384f" stroke="#15384f"></path><path d="M887.7 931.7L1073.3 896.7L1011.3 788.4Z" fill="#277297" stroke="#277297"></path><path d="M1197.8 797.4L1227.8 620.1L1048.3 581.1Z" fill="#112e42" stroke="#112e42"></path><path d="M1197.8 797.4L1048.3 581.1L1011.3 788.4Z" fill="#1d4e6b" stroke="#1d4e6b"></path><path d="M1073.3 896.7L1197.8 797.4L1011.3 788.4Z" fill="#1d4e6b" stroke="#1d4e6b"></path><path d="M688.2 618.1L727.2 781.4L883.7 600.1Z" fill="#15384f" stroke="#15384f"></path><path d="M900.7 742.4L887.7 931.7L1011.3 788.4Z" fill="#246688" stroke="#246688"></path><path d="M727.2 781.4L887.7 931.7L900.7 742.4Z" fill="#277297" stroke="#277297"></path><path d="M851.7 459.9L688.2 618.1L883.7 600.1Z" fill="#081a28" stroke="#081a28"></path><path d="M1227.8 620.1L1189.8 457.9L1079.3 497.9Z" fill="#1d4e6b" stroke="#1d4e6b"></path><path d="M1079.3 497.9L1048.3 276.6L851.7 459.9Z" fill="#297ea6" stroke="#297ea6"></path><path d="M1013.3 1080L1181.8 934.7L1073.3 896.7Z" fill="#277297" stroke="#277297"></path><path d="M1073.3 896.7L1181.8 934.7L1197.8 797.4Z" fill="#19435d" stroke="#19435d"></path><path d="M1197.8 797.4L1411.4 752.4L1227.8 620.1Z" fill="#277297" stroke="#277297"></path><path d="M725.2 304.6L666.2 423.9L851.7 459.9Z" fill="#1d4e6b" stroke="#1d4e6b"></path><path d="M851.7 459.9L666.2 423.9L688.2 618.1Z" fill="#00101c" stroke="#00101c"></path><path d="M1189.8 457.9L1048.3 276.6L1079.3 497.9Z" fill="#15384f" stroke="#15384f"></path><path d="M1048.3 276.6L856.7 272.6L851.7 459.9Z" fill="#205a7a" stroke="#205a7a"></path><path d="M727.2 781.4L682.2 950.7L887.7 931.7Z" fill="#112e42" stroke="#112e42"></path><path d="M887.7 931.7L1013.3 1080L1073.3 896.7Z" fill="#19435d" stroke="#19435d"></path><path d="M558.6 756.4L682.2 950.7L727.2 781.4Z" fill="#081a28" stroke="#081a28"></path><path d="M558.6 756.4L727.2 781.4L688.2 618.1Z" fill="#277297" stroke="#277297"></path><path d="M839.7 1080L1013.3 1080L887.7 931.7Z" fill="#0c2435" stroke="#0c2435"></path><path d="M545.6 613.1L558.6 756.4L688.2 618.1Z" fill="#15384f" stroke="#15384f"></path><path d="M666.2 423.9L545.6 613.1L688.2 618.1Z" fill="#277297" stroke="#277297"></path><path d="M856.7 272.6L725.2 304.6L851.7 459.9Z" fill="#277297" stroke="#277297"></path><path d="M666.2 423.9L552.6 434.9L545.6 613.1Z" fill="#277297" stroke="#277297"></path><path d="M682.2 950.7L839.7 1080L887.7 931.7Z" fill="#1d4e6b" stroke="#1d4e6b"></path><path d="M1411.4 435.9L1246.8 308.6L1189.8 457.9Z" fill="#112e42" stroke="#112e42"></path><path d="M1189.8 457.9L1246.8 308.6L1048.3 276.6Z" fill="#081a28" stroke="#081a28"></path><path d="M1433.4 905.7L1197.8 797.4L1181.8 934.7Z" fill="#15384f" stroke="#15384f"></path><path d="M1433.4 905.7L1411.4 752.4L1197.8 797.4Z" fill="#277297" stroke="#277297"></path><path d="M1227.8 620.1L1411.4 435.9L1189.8 457.9Z" fill="#277297" stroke="#277297"></path><path d="M1411.4 752.4L1425.4 610.1L1227.8 620.1Z" fill="#15384f" stroke="#15384f"></path><path d="M519.6 269.6L552.6 434.9L666.2 423.9Z" fill="#081a28" stroke="#081a28"></path><path d="M536.6 1080L723.2 1080L682.2 950.7Z" fill="#246688" stroke="#246688"></path><path d="M682.2 950.7L723.2 1080L839.7 1080Z" fill="#15384f" stroke="#15384f"></path><path d="M1425.4 610.1L1411.4 435.9L1227.8 620.1Z" fill="#205a7a" stroke="#205a7a"></path><path d="M1013.3 1080L1258.8 1080L1181.8 934.7Z" fill="#081a28" stroke="#081a28"></path><path d="M1229.8 142.3L1034.3 157.3L1048.3 276.6Z" fill="#081a28" stroke="#081a28"></path><path d="M1048.3 276.6L1034.3 157.3L856.7 272.6Z" fill="#277297" stroke="#277297"></path><path d="M856.7 272.6L708.2 159.3L725.2 304.6Z" fill="#081a28" stroke="#081a28"></path><path d="M344.1 885.7L544.6 940.7L558.6 756.4Z" fill="#00101c" stroke="#00101c"></path><path d="M558.6 756.4L544.6 940.7L682.2 950.7Z" fill="#0c2435" stroke="#0c2435"></path><path d="M1258.8 1080L1433.4 905.7L1181.8 934.7Z" fill="#1d4e6b" stroke="#1d4e6b"></path><path d="M1411.4 752.4L1534.9 614.1L1425.4 610.1Z" fill="#1d4e6b" stroke="#1d4e6b"></path><path d="M1411.4 435.9L1393.4 303.6L1246.8 308.6Z" fill="#277297" stroke="#277297"></path><path d="M1246.8 308.6L1229.8 142.3L1048.3 276.6Z" fill="#112e42" stroke="#112e42"></path><path d="M1034.3 157.3L866.7 116.3L856.7 272.6Z" fill="#081a28" stroke="#081a28"></path><path d="M725.2 304.6L519.6 269.6L666.2 423.9Z" fill="#112e42" stroke="#112e42"></path><path d="M1425.4 610.1L1534.9 614.1L1411.4 435.9Z" fill="#081a28" stroke="#081a28"></path><path d="M1411.4 435.9L1558.9 333.6L1393.4 303.6Z" fill="#205a7a" stroke="#205a7a"></path><path d="M1564.9 807.4L1534.9 614.1L1411.4 752.4Z" fill="#15384f" stroke="#15384f"></path><path d="M866.7 116.3L708.2 159.3L856.7 272.6Z" fill="#205a7a" stroke="#205a7a"></path><path d="M1384.4 161.3L1229.8 142.3L1246.8 308.6Z" fill="#081a28" stroke="#081a28"></path><path d="M1034.3 157.3L1042.3 0L866.7 116.3Z" fill="#246688" stroke="#246688"></path><path d="M552.6 434.9L380.1 590.1L545.6 613.1Z" fill="#277297" stroke="#277297"></path><path d="M545.6 613.1L380.1 590.1L558.6 756.4Z" fill="#15384f" stroke="#15384f"></path><path d="M361.1 458.9L380.1 590.1L552.6 434.9Z" fill="#00101c" stroke="#00101c"></path><path d="M708.2 159.3L519.6 269.6L725.2 304.6Z" fill="#19435d" stroke="#19435d"></path><path d="M544.6 940.7L536.6 1080L682.2 950.7Z" fill="#0c2435" stroke="#0c2435"></path><path d="M383.1 1080L536.6 1080L544.6 940.7Z" fill="#15384f" stroke="#15384f"></path><path d="M1583.9 942.7L1564.9 807.4L1433.4 905.7Z" fill="#112e42" stroke="#112e42"></path><path d="M1433.4 905.7L1564.9 807.4L1411.4 752.4Z" fill="#277297" stroke="#277297"></path><path d="M1258.8 1080L1416.4 1080L1433.4 905.7Z" fill="#246688" stroke="#246688"></path><path d="M370.1 337.6L361.1 458.9L552.6 434.9Z" fill="#00101c" stroke="#00101c"></path><path d="M1531.9 139.3L1384.4 161.3L1393.4 303.6Z" fill="#246688" stroke="#246688"></path><path d="M1393.4 303.6L1384.4 161.3L1246.8 308.6Z" fill="#15384f" stroke="#15384f"></path><path d="M207.5 906.7L333.1 768.4L138.5 808.4Z" fill="#205a7a" stroke="#205a7a"></path><path d="M380.1 590.1L333.1 768.4L558.6 756.4Z" fill="#081a28" stroke="#081a28"></path><path d="M1760.5 479.9L1588.9 427.9L1534.9 614.1Z" fill="#277297" stroke="#277297"></path><path d="M1534.9 614.1L1588.9 427.9L1411.4 435.9Z" fill="#00101c" stroke="#00101c"></path><path d="M1229.8 142.3L1042.3 0L1034.3 157.3Z" fill="#19435d" stroke="#19435d"></path><path d="M866.7 116.3L706.2 0L708.2 159.3Z" fill="#277297" stroke="#277297"></path><path d="M1260.8 0L1042.3 0L1229.8 142.3Z" fill="#1d4e6b" stroke="#1d4e6b"></path><path d="M333.1 768.4L344.1 885.7L558.6 756.4Z" fill="#112e42" stroke="#112e42"></path><path d="M1588.9 427.9L1558.9 333.6L1411.4 435.9Z" fill="#297ea6" stroke="#297ea6"></path><path d="M1563.9 1080L1583.9 942.7L1433.4 905.7Z" fill="#00101c" stroke="#00101c"></path><path d="M1564.9 807.4L1769.5 767.4L1534.9 614.1Z" fill="#246688" stroke="#246688"></path><path d="M1042.3 0L855.7 0L866.7 116.3Z" fill="#00101c" stroke="#00101c"></path><path d="M708.2 159.3L512.6 153.3L519.6 269.6Z" fill="#246688" stroke="#246688"></path><path d="M519.6 269.6L370.1 337.6L552.6 434.9Z" fill="#15384f" stroke="#15384f"></path><path d="M160.5 649.1L333.1 768.4L380.1 590.1Z" fill="#1d4e6b" stroke="#1d4e6b"></path><path d="M325.1 170.3L370.1 337.6L519.6 269.6Z" fill="#19435d" stroke="#19435d"></path><path d="M706.2 0L512.6 153.3L708.2 159.3Z" fill="#112e42" stroke="#112e42"></path><path d="M855.7 0L706.2 0L866.7 116.3Z" fill="#205a7a" stroke="#205a7a"></path><path d="M1362.4 0L1229.8 142.3L1384.4 161.3Z" fill="#205a7a" stroke="#205a7a"></path><path d="M1362.4 0L1260.8 0L1229.8 142.3Z" fill="#0c2435" stroke="#0c2435"></path><path d="M1416.4 1080L1563.9 1080L1433.4 905.7Z" fill="#19435d" stroke="#19435d"></path><path d="M344.1 885.7L383.1 1080L544.6 940.7Z" fill="#00101c" stroke="#00101c"></path><path d="M1558.9 333.6L1531.9 139.3L1393.4 303.6Z" fill="#277297" stroke="#277297"></path><path d="M1713.5 127.3L1531.9 139.3L1558.9 333.6Z" fill="#297ea6" stroke="#297ea6"></path><path d="M1531.9 139.3L1362.4 0L1384.4 161.3Z" fill="#0c2435" stroke="#0c2435"></path><path d="M1708.5 1080L1736.5 907.7L1583.9 942.7Z" fill="#112e42" stroke="#112e42"></path><path d="M1583.9 942.7L1736.5 907.7L1564.9 807.4Z" fill="#081a28" stroke="#081a28"></path><path d="M1588.9 427.9L1780.5 301.6L1558.9 333.6Z" fill="#1d4e6b" stroke="#1d4e6b"></path><path d="M1736.5 907.7L1769.5 767.4L1564.9 807.4Z" fill="#297ea6" stroke="#297ea6"></path><path d="M333.1 768.4L207.5 906.7L344.1 885.7Z" fill="#112e42" stroke="#112e42"></path><path d="M344.1 885.7L202.5 1080L383.1 1080Z" fill="#297ea6" stroke="#297ea6"></path><path d="M198.5 428.9L380.1 590.1L361.1 458.9Z" fill="#081a28" stroke="#081a28"></path><path d="M1781.5 614.1L1760.5 479.9L1534.9 614.1Z" fill="#1d4e6b" stroke="#1d4e6b"></path><path d="M1769.5 767.4L1781.5 614.1L1534.9 614.1Z" fill="#081a28" stroke="#081a28"></path><path d="M158.5 310.6L198.5 428.9L370.1 337.6Z" fill="#081a28" stroke="#081a28"></path><path d="M370.1 337.6L198.5 428.9L361.1 458.9Z" fill="#00101c" stroke="#00101c"></path><path d="M706.2 0L502.6 0L512.6 153.3Z" fill="#00101c" stroke="#00101c"></path><path d="M512.6 153.3L325.1 170.3L519.6 269.6Z" fill="#246688" stroke="#246688"></path><path d="M198.5 428.9L160.5 649.1L380.1 590.1Z" fill="#19435d" stroke="#19435d"></path><path d="M351.1 0L325.1 170.3L512.6 153.3Z" fill="#297ea6" stroke="#297ea6"></path><path d="M1920 732.4L1781.5 614.1L1769.5 767.4Z" fill="#081a28" stroke="#081a28"></path><path d="M1563.9 1080L1708.5 1080L1583.9 942.7Z" fill="#19435d" stroke="#19435d"></path><path d="M160.5 649.1L138.5 808.4L333.1 768.4Z" fill="#297ea6" stroke="#297ea6"></path><path d="M1713.5 127.3L1543.9 0L1531.9 139.3Z" fill="#15384f" stroke="#15384f"></path><path d="M1531.9 139.3L1543.9 0L1362.4 0Z" fill="#081a28" stroke="#081a28"></path><path d="M0 907.7L202.5 1080L207.5 906.7Z" fill="#112e42" stroke="#112e42"></path><path d="M207.5 906.7L202.5 1080L344.1 885.7Z" fill="#246688" stroke="#246688"></path><path d="M1920 430.9L1780.5 301.6L1760.5 479.9Z" fill="#081a28" stroke="#081a28"></path><path d="M1760.5 479.9L1780.5 301.6L1588.9 427.9Z" fill="#00101c" stroke="#00101c"></path><path d="M0 446.9L0 622.1L160.5 649.1Z" fill="#297ea6" stroke="#297ea6"></path><path d="M160.5 649.1L0 800.4L138.5 808.4Z" fill="#00101c" stroke="#00101c"></path><path d="M325.1 170.3L158.5 310.6L370.1 337.6Z" fill="#297ea6" stroke="#297ea6"></path><path d="M167.5 137.3L158.5 310.6L325.1 170.3Z" fill="#246688" stroke="#246688"></path><path d="M502.6 0L351.1 0L512.6 153.3Z" fill="#205a7a" stroke="#205a7a"></path><path d="M1780.5 301.6L1713.5 127.3L1558.9 333.6Z" fill="#00101c" stroke="#00101c"></path><path d="M1781.5 614.1L1920 430.9L1760.5 479.9Z" fill="#19435d" stroke="#19435d"></path><path d="M1780.5 301.6L1920 174.3L1713.5 127.3Z" fill="#15384f" stroke="#15384f"></path><path d="M1920 732.4L1920 645.1L1781.5 614.1Z" fill="#00101c" stroke="#00101c"></path><path d="M1920 732.4L1769.5 767.4L1920 960.7Z" fill="#15384f" stroke="#15384f"></path><path d="M1920 960.7L1769.5 767.4L1736.5 907.7Z" fill="#205a7a" stroke="#205a7a"></path><path d="M351.1 0L167.5 137.3L325.1 170.3Z" fill="#19435d" stroke="#19435d"></path><path d="M1920 645.1L1920 430.9L1781.5 614.1Z" fill="#112e42" stroke="#112e42"></path><path d="M0 446.9L198.5 428.9L158.5 310.6Z" fill="#19435d" stroke="#19435d"></path><path d="M0 446.9L160.5 649.1L198.5 428.9Z" fill="#19435d" stroke="#19435d"></path><path d="M138.5 808.4L0 907.7L207.5 906.7Z" fill="#0c2435" stroke="#0c2435"></path><path d="M0 622.1L0 800.4L160.5 649.1Z" fill="#297ea6" stroke="#297ea6"></path><path d="M1708.5 1080L1920 960.7L1736.5 907.7Z" fill="#081a28" stroke="#081a28"></path><path d="M0 316.6L0 446.9L158.5 310.6Z" fill="#081a28" stroke="#081a28"></path><path d="M1920 430.9L1920 336.6L1780.5 301.6Z" fill="#19435d" stroke="#19435d"></path><path d="M0 800.4L0 907.7L138.5 808.4Z" fill="#205a7a" stroke="#205a7a"></path><path d="M1920 174.3L1764.5 0L1713.5 127.3Z" fill="#246688" stroke="#246688"></path><path d="M1713.5 127.3L1764.5 0L1543.9 0Z" fill="#0c2435" stroke="#0c2435"></path><path d="M0 153.3L0 316.6L158.5 310.6Z" fill="#277297" stroke="#277297"></path><path d="M1708.5 1080L1920 1080L1920 960.7Z" fill="#246688" stroke="#246688"></path><path d="M351.1 0L168.5 0L167.5 137.3Z" fill="#246688" stroke="#246688"></path><path d="M167.5 137.3L0 153.3L158.5 310.6Z" fill="#246688" stroke="#246688"></path><path d="M0 907.7L0 1080L202.5 1080Z" fill="#15384f" stroke="#15384f"></path><path d="M1920 336.6L1920 174.3L1780.5 301.6Z" fill="#277297" stroke="#277297"></path><path d="M0 0L0 153.3L167.5 137.3Z" fill="#112e42" stroke="#112e42"></path><path d="M1920 174.3L1920 0L1764.5 0Z" fill="#1d4e6b" stroke="#1d4e6b"></path><path d="M168.5 0L0 0L167.5 137.3Z" fill="#112e42" stroke="#112e42"></path></g></svg>