<svg id="visual" viewBox="0 0 1920 1080" width="1920" height="1080" xmlns="http://www.w3.org/2000/svg" xmlns:xlink="http://www.w3.org/1999/xlink" version="1.1"><g stroke-width="1" stroke-linejoin="bevel"><path d="M1022.3 491.9L855.7 653.1L1072.3 627.1Z" fill="#74856b" stroke="#74856b"></path><path d="M1022.3 491.9L870.7 480.9L855.7 653.1Z" fill="#62785f" stroke="#62785f"></path><path d="M855.7 653.1L1019.3 744.4L1072.3 627.1Z" fill="#bcbca3" stroke="#bcbca3"></path><path d="M855.7 653.1L844.7 780.4L1019.3 744.4Z" fill="#2c523f" stroke="#2c523f"></path><path d="M1022.3 491.9L881.7 338.6L870.7 480.9Z" fill="#3e5e49" stroke="#3e5e49"></path><path d="M870.7 480.9L677.2 585.1L855.7 653.1Z" fill="#506b54" stroke="#506b54"></path><path d="M855.7 653.1L716.2 782.4L844.7 780.4Z" fill="#aaae94" stroke="#aaae94"></path><path d="M671.2 447.9L677.2 585.1L870.7 480.9Z" fill="#506b54" stroke="#506b54"></path><path d="M1019.3 744.4L1194.8 744.4L1072.3 627.1Z" fill="#98a086" stroke="#98a086"></path><path d="M1259.8 494.9L1062.3 326.6L1022.3 491.9Z" fill="#bcbca3" stroke="#bcbca3"></path><path d="M1033.3 891.7L1194.8 744.4L1019.3 744.4Z" fill="#506b54" stroke="#506b54"></path><path d="M1259.8 494.9L1022.3 491.9L1072.3 627.1Z" fill="#00392d" stroke="#00392d"></path><path d="M1022.3 491.9L1062.3 326.6L881.7 338.6Z" fill="#bcbca3" stroke="#bcbca3"></path><path d="M1194.8 744.4L1257.8 641.1L1072.3 627.1Z" fill="#506b54" stroke="#506b54"></path><path d="M677.2 585.1L716.2 782.4L855.7 653.1Z" fill="#98a086" stroke="#98a086"></path><path d="M884.7 933.7L1033.3 891.7L844.7 780.4Z" fill="#bcbca3" stroke="#bcbca3"></path><path d="M844.7 780.4L1033.3 891.7L1019.3 744.4Z" fill="#98a086" stroke="#98a086"></path><path d="M1257.8 641.1L1259.8 494.9L1072.3 627.1Z" fill="#98a086" stroke="#98a086"></path><path d="M729.2 347.6L671.2 447.9L870.7 480.9Z" fill="#00392d" stroke="#00392d"></path><path d="M886.7 151.3L729.2 347.6L881.7 338.6Z" fill="#194536" stroke="#194536"></path><path d="M881.7 338.6L729.2 347.6L870.7 480.9Z" fill="#194536" stroke="#194536"></path><path d="M713.2 886.7L884.7 933.7L844.7 780.4Z" fill="#00392d" stroke="#00392d"></path><path d="M491.6 808.4L713.2 886.7L716.2 782.4Z" fill="#3e5e49" stroke="#3e5e49"></path><path d="M716.2 782.4L713.2 886.7L844.7 780.4Z" fill="#aaae94" stroke="#aaae94"></path><path d="M671.2 447.9L560.6 603.1L677.2 585.1Z" fill="#bcbca3" stroke="#bcbca3"></path><path d="M677.2 585.1L560.6 603.1L716.2 782.4Z" fill="#aaae94" stroke="#aaae94"></path><path d="M551.6 422.9L560.6 603.1L671.2 447.9Z" fill="#00392d" stroke="#00392d"></path><path d="M1259.8 494.9L1236.8 291.6L1062.3 326.6Z" fill="#62785f" stroke="#62785f"></path><path d="M1062.3 326.6L886.7 151.3L881.7 338.6Z" fill="#00392d" stroke="#00392d"></path><path d="M1236.8 291.6L1082.3 191.3L1062.3 326.6Z" fill="#98a086" stroke="#98a086"></path><path d="M1043.3 1080L1202.8 951.7L1033.3 891.7Z" fill="#bcbca3" stroke="#bcbca3"></path><path d="M1033.3 891.7L1202.8 951.7L1194.8 744.4Z" fill="#3e5e49" stroke="#3e5e49"></path><path d="M1396.4 747.4L1419.4 577.1L1257.8 641.1Z" fill="#00392d" stroke="#00392d"></path><path d="M548.6 285.6L551.6 422.9L729.2 347.6Z" fill="#00392d" stroke="#00392d"></path><path d="M729.2 347.6L551.6 422.9L671.2 447.9Z" fill="#194536" stroke="#194536"></path><path d="M1082.3 191.3L886.7 151.3L1062.3 326.6Z" fill="#98a086" stroke="#98a086"></path><path d="M1419.4 577.1L1380.4 433.9L1259.8 494.9Z" fill="#869378" stroke="#869378"></path><path d="M1259.8 494.9L1380.4 433.9L1236.8 291.6Z" fill="#3e5e49" stroke="#3e5e49"></path><path d="M1419.4 577.1L1259.8 494.9L1257.8 641.1Z" fill="#194536" stroke="#194536"></path><path d="M1396.4 747.4L1257.8 641.1L1194.8 744.4Z" fill="#869378" stroke="#869378"></path><path d="M1202.8 951.7L1396.4 747.4L1194.8 744.4Z" fill="#194536" stroke="#194536"></path><path d="M716.2 1080L894.7 1080L884.7 933.7Z" fill="#98a086" stroke="#98a086"></path><path d="M884.7 933.7L1043.3 1080L1033.3 891.7Z" fill="#aaae94" stroke="#aaae94"></path><path d="M1236.8 291.6L1237.8 163.3L1082.3 191.3Z" fill="#98a086" stroke="#98a086"></path><path d="M1380.4 433.9L1358.4 303.6L1236.8 291.6Z" fill="#62785f" stroke="#62785f"></path><path d="M1430.4 171.3L1358.4 303.6L1586.9 295.6Z" fill="#62785f" stroke="#62785f"></path><path d="M894.7 1080L1043.3 1080L884.7 933.7Z" fill="#bcbca3" stroke="#bcbca3"></path><path d="M690.2 134.3L548.6 285.6L729.2 347.6Z" fill="#98a086" stroke="#98a086"></path><path d="M1358.4 303.6L1237.8 163.3L1236.8 291.6Z" fill="#2c523f" stroke="#2c523f"></path><path d="M1082.3 191.3L1016.3 0L886.7 151.3Z" fill="#74856b" stroke="#74856b"></path><path d="M386.1 741.4L491.6 808.4L560.6 603.1Z" fill="#194536" stroke="#194536"></path><path d="M560.6 603.1L491.6 808.4L716.2 782.4Z" fill="#00392d" stroke="#00392d"></path><path d="M713.2 886.7L716.2 1080L884.7 933.7Z" fill="#2c523f" stroke="#2c523f"></path><path d="M388.1 442.9L560.6 603.1L551.6 422.9Z" fill="#98a086" stroke="#98a086"></path><path d="M886.7 151.3L690.2 134.3L729.2 347.6Z" fill="#506b54" stroke="#506b54"></path><path d="M879.7 0L690.2 134.3L886.7 151.3Z" fill="#3e5e49" stroke="#3e5e49"></path><path d="M544.6 953.7L716.2 1080L713.2 886.7Z" fill="#74856b" stroke="#74856b"></path><path d="M491.6 808.4L544.6 953.7L713.2 886.7Z" fill="#aaae94" stroke="#aaae94"></path><path d="M1202.8 951.7L1429.4 896.7L1396.4 747.4Z" fill="#194536" stroke="#194536"></path><path d="M1396.4 747.4L1530.9 650.1L1419.4 577.1Z" fill="#aaae94" stroke="#aaae94"></path><path d="M1388.4 1080L1429.4 896.7L1202.8 951.7Z" fill="#869378" stroke="#869378"></path><path d="M1043.3 1080L1259.8 1080L1202.8 951.7Z" fill="#62785f" stroke="#62785f"></path><path d="M1597.9 736.4L1530.9 650.1L1396.4 747.4Z" fill="#194536" stroke="#194536"></path><path d="M1419.4 577.1L1602.9 429.9L1380.4 433.9Z" fill="#98a086" stroke="#98a086"></path><path d="M690.2 134.3L545.6 187.3L548.6 285.6Z" fill="#98a086" stroke="#98a086"></path><path d="M384.1 275.6L388.1 442.9L551.6 422.9Z" fill="#194536" stroke="#194536"></path><path d="M384.1 275.6L551.6 422.9L548.6 285.6Z" fill="#74856b" stroke="#74856b"></path><path d="M311.1 633.1L386.1 741.4L560.6 603.1Z" fill="#194536" stroke="#194536"></path><path d="M491.6 808.4L377.1 933.7L544.6 953.7Z" fill="#3e5e49" stroke="#3e5e49"></path><path d="M1197.8 0L1016.3 0L1082.3 191.3Z" fill="#3e5e49" stroke="#3e5e49"></path><path d="M690.2 134.3L543.6 0L545.6 187.3Z" fill="#00392d" stroke="#00392d"></path><path d="M1016.3 0L879.7 0L886.7 151.3Z" fill="#aaae94" stroke="#aaae94"></path><path d="M1358.4 303.6L1430.4 171.3L1237.8 163.3Z" fill="#98a086" stroke="#98a086"></path><path d="M1237.8 163.3L1197.8 0L1082.3 191.3Z" fill="#3e5e49" stroke="#3e5e49"></path><path d="M1586.9 295.6L1358.4 303.6L1380.4 433.9Z" fill="#2c523f" stroke="#2c523f"></path><path d="M1392.4 0L1197.8 0L1237.8 163.3Z" fill="#bcbca3" stroke="#bcbca3"></path><path d="M388.1 442.9L311.1 633.1L560.6 603.1Z" fill="#00392d" stroke="#00392d"></path><path d="M1259.8 1080L1388.4 1080L1202.8 951.7Z" fill="#00392d" stroke="#00392d"></path><path d="M1429.4 896.7L1597.9 736.4L1396.4 747.4Z" fill="#2c523f" stroke="#2c523f"></path><path d="M879.7 0L678.2 0L690.2 134.3Z" fill="#74856b" stroke="#74856b"></path><path d="M1538.9 951.7L1597.9 736.4L1429.4 896.7Z" fill="#506b54" stroke="#506b54"></path><path d="M1530.9 650.1L1602.9 429.9L1419.4 577.1Z" fill="#98a086" stroke="#98a086"></path><path d="M545.6 187.3L384.1 275.6L548.6 285.6Z" fill="#506b54" stroke="#506b54"></path><path d="M182.5 486.9L180.5 632.1L311.1 633.1Z" fill="#506b54" stroke="#506b54"></path><path d="M363.1 129.3L384.1 275.6L545.6 187.3Z" fill="#3e5e49" stroke="#3e5e49"></path><path d="M377.1 933.7L508.6 1080L544.6 953.7Z" fill="#74856b" stroke="#74856b"></path><path d="M544.6 953.7L508.6 1080L716.2 1080Z" fill="#bcbca3" stroke="#bcbca3"></path><path d="M377.1 933.7L491.6 808.4L386.1 741.4Z" fill="#2c523f" stroke="#2c523f"></path><path d="M1721.5 623.1L1602.9 429.9L1530.9 650.1Z" fill="#869378" stroke="#869378"></path><path d="M194.5 925.7L377.1 933.7L386.1 741.4Z" fill="#869378" stroke="#869378"></path><path d="M1388.4 1080L1538.9 951.7L1429.4 896.7Z" fill="#74856b" stroke="#74856b"></path><path d="M1602.9 429.9L1586.9 295.6L1380.4 433.9Z" fill="#3e5e49" stroke="#3e5e49"></path><path d="M678.2 0L543.6 0L690.2 134.3Z" fill="#00392d" stroke="#00392d"></path><path d="M1581.9 121.3L1392.4 0L1430.4 171.3Z" fill="#506b54" stroke="#506b54"></path><path d="M1430.4 171.3L1392.4 0L1237.8 163.3Z" fill="#869378" stroke="#869378"></path><path d="M543.6 0L363.1 129.3L545.6 187.3Z" fill="#62785f" stroke="#62785f"></path><path d="M182.5 486.9L311.1 633.1L388.1 442.9Z" fill="#bcbca3" stroke="#bcbca3"></path><path d="M1753.5 747.4L1721.5 623.1L1597.9 736.4Z" fill="#bcbca3" stroke="#bcbca3"></path><path d="M1597.9 736.4L1721.5 623.1L1530.9 650.1Z" fill="#869378" stroke="#869378"></path><path d="M1602.9 429.9L1775.5 310.6L1586.9 295.6Z" fill="#74856b" stroke="#74856b"></path><path d="M182.5 486.9L388.1 442.9L148.5 288.6Z" fill="#98a086" stroke="#98a086"></path><path d="M311.1 633.1L167.5 760.4L386.1 741.4Z" fill="#869378" stroke="#869378"></path><path d="M1586.9 295.6L1581.9 121.3L1430.4 171.3Z" fill="#00392d" stroke="#00392d"></path><path d="M1776.5 177.3L1581.9 121.3L1586.9 295.6Z" fill="#98a086" stroke="#98a086"></path><path d="M148.5 288.6L388.1 442.9L384.1 275.6Z" fill="#62785f" stroke="#62785f"></path><path d="M1388.4 1080L1571.9 1080L1538.9 951.7Z" fill="#00392d" stroke="#00392d"></path><path d="M1723.5 942.7L1753.5 747.4L1597.9 736.4Z" fill="#aaae94" stroke="#aaae94"></path><path d="M377.1 933.7L330.1 1080L508.6 1080Z" fill="#62785f" stroke="#62785f"></path><path d="M194.5 925.7L330.1 1080L377.1 933.7Z" fill="#194536" stroke="#194536"></path><path d="M0 632.1L167.5 760.4L180.5 632.1Z" fill="#869378" stroke="#869378"></path><path d="M180.5 632.1L167.5 760.4L311.1 633.1Z" fill="#194536" stroke="#194536"></path><path d="M1721.5 623.1L1756.5 462.9L1602.9 429.9Z" fill="#506b54" stroke="#506b54"></path><path d="M1723.5 942.7L1597.9 736.4L1538.9 951.7Z" fill="#194536" stroke="#194536"></path><path d="M1721.5 623.1L1920 587.1L1756.5 462.9Z" fill="#3e5e49" stroke="#3e5e49"></path><path d="M167.5 760.4L194.5 925.7L386.1 741.4Z" fill="#3e5e49" stroke="#3e5e49"></path><path d="M543.6 0L364.1 0L363.1 129.3Z" fill="#194536" stroke="#194536"></path><path d="M212.5 118.3L148.5 288.6L384.1 275.6Z" fill="#3e5e49" stroke="#3e5e49"></path><path d="M1571.9 1080L1723.5 942.7L1538.9 951.7Z" fill="#869378" stroke="#869378"></path><path d="M1920 492.9L1775.5 310.6L1756.5 462.9Z" fill="#869378" stroke="#869378"></path><path d="M1756.5 462.9L1775.5 310.6L1602.9 429.9Z" fill="#74856b" stroke="#74856b"></path><path d="M212.5 118.3L384.1 275.6L363.1 129.3Z" fill="#194536" stroke="#194536"></path><path d="M182.5 486.9L0 632.1L180.5 632.1Z" fill="#3e5e49" stroke="#3e5e49"></path><path d="M1725.5 0L1609.9 0L1581.9 121.3Z" fill="#bcbca3" stroke="#bcbca3"></path><path d="M1581.9 121.3L1609.9 0L1392.4 0Z" fill="#62785f" stroke="#62785f"></path><path d="M364.1 0L212.5 118.3L363.1 129.3Z" fill="#194536" stroke="#194536"></path><path d="M1775.5 310.6L1776.5 177.3L1586.9 295.6Z" fill="#98a086" stroke="#98a086"></path><path d="M1920 804.4L1920 587.1L1753.5 747.4Z" fill="#74856b" stroke="#74856b"></path><path d="M1753.5 747.4L1920 587.1L1721.5 623.1Z" fill="#506b54" stroke="#506b54"></path><path d="M1571.9 1080L1759.5 1080L1723.5 942.7Z" fill="#bcbca3" stroke="#bcbca3"></path><path d="M0 945.7L194.5 925.7L167.5 760.4Z" fill="#00392d" stroke="#00392d"></path><path d="M0 945.7L144.5 1080L194.5 925.7Z" fill="#2c523f" stroke="#2c523f"></path><path d="M194.5 925.7L144.5 1080L330.1 1080Z" fill="#aaae94" stroke="#aaae94"></path><path d="M0 456.9L0 632.1L182.5 486.9Z" fill="#62785f" stroke="#62785f"></path><path d="M0 456.9L182.5 486.9L148.5 288.6Z" fill="#00392d" stroke="#00392d"></path><path d="M1920 804.4L1753.5 747.4L1723.5 942.7Z" fill="#bcbca3" stroke="#bcbca3"></path><path d="M1775.5 310.6L1920 269.6L1776.5 177.3Z" fill="#00392d" stroke="#00392d"></path><path d="M1920 587.1L1920 492.9L1756.5 462.9Z" fill="#62785f" stroke="#62785f"></path><path d="M0 311.6L0 456.9L148.5 288.6Z" fill="#3e5e49" stroke="#3e5e49"></path><path d="M364.1 0L191.5 0L212.5 118.3Z" fill="#aaae94" stroke="#aaae94"></path><path d="M0 148.3L0 311.6L148.5 288.6Z" fill="#bcbca3" stroke="#bcbca3"></path><path d="M1776.5 177.3L1725.5 0L1581.9 121.3Z" fill="#869378" stroke="#869378"></path><path d="M1920 132.3L1725.5 0L1776.5 177.3Z" fill="#62785f" stroke="#62785f"></path><path d="M0 632.1L0 762.4L167.5 760.4Z" fill="#bcbca3" stroke="#bcbca3"></path><path d="M1920 957.7L1920 804.4L1723.5 942.7Z" fill="#aaae94" stroke="#aaae94"></path><path d="M0 148.3L148.5 288.6L212.5 118.3Z" fill="#869378" stroke="#869378"></path><path d="M1920 492.9L1920 269.6L1775.5 310.6Z" fill="#00392d" stroke="#00392d"></path><path d="M0 762.4L0 945.7L167.5 760.4Z" fill="#00392d" stroke="#00392d"></path><path d="M1759.5 1080L1920 957.7L1723.5 942.7Z" fill="#194536" stroke="#194536"></path><path d="M191.5 0L0 148.3L212.5 118.3Z" fill="#2c523f" stroke="#2c523f"></path><path d="M1920 269.6L1920 132.3L1776.5 177.3Z" fill="#00392d" stroke="#00392d"></path><path d="M0 945.7L0 1080L144.5 1080Z" fill="#98a086" stroke="#98a086"></path><path d="M1759.5 1080L1920 1080L1920 957.7Z" fill="#194536" stroke="#194536"></path><path d="M191.5 0L0 0L0 148.3Z" fill="#869378" stroke="#869378"></path><path d="M1920 132.3L1920 0L1725.5 0Z" fill="#74856b" stroke="#74856b"></path></g></svg>